<svg width="485" height="132" viewBox="0 0 485 132" fill="none" xmlns="http://www.w3.org/2000/svg">
<path d="M140.73 75.7031V105H134.92V33.9062H157.283C160.376 33.9714 163.289 34.4922 166.023 35.4688C168.758 36.4453 171.134 37.8288 173.152 39.6191C175.171 41.4095 176.766 43.5905 177.938 46.1621C179.109 48.7337 179.695 51.6634 179.695 54.9512C179.695 58.2064 179.109 61.1198 177.938 63.6914C176.766 66.2305 175.154 68.3789 173.104 70.1367C171.085 71.9271 168.709 73.2943 165.975 74.2383C163.273 75.1823 160.376 75.6706 157.283 75.7031H140.73ZM140.73 70.7227H157.283C159.594 70.6901 161.759 70.3158 163.777 69.5996C165.796 68.8509 167.553 67.793 169.051 66.4258C170.548 65.0911 171.72 63.4798 172.566 61.5918C173.445 59.6712 173.885 57.4902 173.885 55.0488C173.885 52.6074 173.462 50.4102 172.615 48.457C171.769 46.4714 170.613 44.7786 169.148 43.3789C167.651 41.9792 165.877 40.9049 163.826 40.1562C161.808 39.375 159.627 38.9681 157.283 38.9355H140.73V70.7227ZM217.684 75.2637H200.105V105H194.344V33.9062H214.412C217.537 33.9714 220.483 34.4759 223.25 35.4199C226.017 36.3639 228.442 37.7148 230.525 39.4727C232.576 41.263 234.188 43.444 235.359 46.0156C236.564 48.5547 237.166 51.4844 237.166 54.8047C237.166 57.2135 236.808 59.3945 236.092 61.3477C235.408 63.3008 234.448 65.0749 233.211 66.6699C231.974 68.2324 230.493 69.6159 228.768 70.8203C227.042 72.0247 225.154 73.0501 223.104 73.8965L239.363 104.365V105H233.26L217.684 75.2637ZM200.105 70.2832H215.633C217.846 70.2181 219.897 69.8112 221.785 69.0625C223.706 68.2812 225.382 67.207 226.814 65.8398C228.214 64.4727 229.305 62.8613 230.086 61.0059C230.9 59.1178 231.307 57.0345 231.307 54.7559C231.307 52.2819 230.867 50.0684 229.988 48.1152C229.142 46.1621 227.954 44.502 226.424 43.1348C224.926 41.8001 223.136 40.7747 221.053 40.0586C219.002 39.3424 216.788 38.9681 214.412 38.9355H200.105V70.2832ZM298.299 74.1895C298.266 76.5983 298.055 79.0723 297.664 81.6113C297.273 84.1178 296.671 86.543 295.857 88.8867C295.044 91.263 294.002 93.4928 292.732 95.5762C291.463 97.627 289.949 99.4173 288.191 100.947C286.434 102.51 284.415 103.747 282.137 104.658C279.858 105.537 277.319 105.977 274.52 105.977C271.688 105.977 269.132 105.537 266.854 104.658C264.575 103.747 262.557 102.51 260.799 100.947C259.041 99.4173 257.511 97.6107 256.209 95.5273C254.939 93.444 253.898 91.2305 253.084 88.8867C252.238 86.5104 251.603 84.069 251.18 81.5625C250.757 79.056 250.529 76.5983 250.496 74.1895V64.7656C250.529 62.3568 250.74 59.8991 251.131 57.3926C251.554 54.8535 252.189 52.4121 253.035 50.0684C253.849 47.6921 254.891 45.4785 256.16 43.4277C257.43 41.3444 258.943 39.5052 260.701 37.9102C262.459 36.3802 264.477 35.1758 266.756 34.2969C269.035 33.3854 271.59 32.9297 274.422 32.9297C277.221 32.9297 279.76 33.3854 282.039 34.2969C284.318 35.1758 286.352 36.3802 288.143 37.9102C289.9 39.4727 291.414 41.2956 292.684 43.3789C293.953 45.4622 295.011 47.6758 295.857 50.0195C296.671 52.3958 297.273 54.8535 297.664 57.3926C298.055 59.8991 298.266 62.3568 298.299 64.7656V74.1895ZM292.586 64.668C292.553 62.7799 292.407 60.8268 292.146 58.8086C291.886 56.7904 291.463 54.7884 290.877 52.8027C290.291 50.8822 289.526 49.043 288.582 47.2852C287.671 45.4948 286.548 43.9323 285.213 42.5977C283.878 41.263 282.316 40.2051 280.525 39.4238C278.735 38.6426 276.701 38.252 274.422 38.252C272.111 38.252 270.06 38.6589 268.27 39.4727C266.512 40.2539 264.965 41.2956 263.631 42.5977C262.296 43.9648 261.157 45.5273 260.213 47.2852C259.301 49.043 258.569 50.8984 258.016 52.8516C257.43 54.8372 256.99 56.8392 256.697 58.8574C256.437 60.8757 256.29 62.8125 256.258 64.668V74.1895C256.29 76.0449 256.437 77.998 256.697 80.0488C256.99 82.0671 257.43 84.0527 258.016 86.0059C258.602 87.9915 259.35 89.8796 260.262 91.6699C261.206 93.4277 262.345 94.974 263.68 96.3086C265.014 97.6432 266.577 98.7174 268.367 99.5312C270.158 100.312 272.208 100.703 274.52 100.703C276.798 100.703 278.833 100.312 280.623 99.5312C282.413 98.7174 283.976 97.6432 285.311 96.3086C286.645 94.974 287.768 93.4277 288.68 91.6699C289.591 89.8796 290.34 88.0078 290.926 86.0547C291.512 84.1016 291.919 82.1159 292.146 80.0977C292.407 78.0469 292.553 76.0775 292.586 74.1895V64.668ZM352.84 87.5195C352.872 85.013 352.319 82.8971 351.18 81.1719C350.073 79.4141 348.657 77.9329 346.932 76.7285C345.174 75.5566 343.237 74.5638 341.121 73.75C339.005 72.9362 336.954 72.2201 334.969 71.6016C332.592 70.8529 330.151 69.9577 327.645 68.916C325.138 67.8743 322.876 66.6211 320.857 65.1562C318.644 63.5612 316.837 61.6569 315.438 59.4434C314.038 57.2298 313.322 54.5117 313.289 51.2891C313.289 48.3268 313.94 45.7064 315.242 43.4277C316.577 41.1165 318.302 39.1797 320.418 37.6172C322.534 36.0872 324.926 34.9316 327.596 34.1504C330.265 33.3366 332.951 32.9297 335.652 32.9297C338.68 32.9297 341.544 33.4342 344.246 34.4434C346.98 35.4199 349.373 36.8034 351.424 38.5938C353.507 40.3841 355.167 42.5651 356.404 45.1367C357.641 47.6758 358.309 50.5078 358.406 53.6328H352.498C352.238 51.3216 351.668 49.222 350.789 47.334C349.91 45.4134 348.738 43.7695 347.273 42.4023C345.841 41.0352 344.132 39.9772 342.146 39.2285C340.193 38.4798 338.029 38.1055 335.652 38.1055C333.667 38.1055 331.697 38.3822 329.744 38.9355C327.791 39.4564 326.049 40.2539 324.52 41.3281C322.957 42.4349 321.688 43.8021 320.711 45.4297C319.767 47.0573 319.295 48.9779 319.295 51.1914C319.295 53.5677 319.848 55.5859 320.955 57.2461C322.062 58.8737 323.478 60.2572 325.203 61.3965C326.896 62.5358 328.784 63.4961 330.867 64.2773C332.951 65.026 334.936 65.6934 336.824 66.2793C339.396 67.0605 341.984 68.0208 344.588 69.1602C347.225 70.2669 349.633 71.6504 351.814 73.3105C353.898 74.9382 355.59 76.9238 356.893 79.2676C358.227 81.5788 358.895 84.2969 358.895 87.4219C358.895 90.5469 358.211 93.265 356.844 95.5762C355.509 97.8874 353.768 99.8079 351.619 101.338C349.471 102.9 347.029 104.072 344.295 104.854C341.561 105.602 338.794 105.977 335.994 105.977C332.674 105.977 329.435 105.456 326.277 104.414C323.152 103.34 320.434 101.777 318.123 99.7266C316.04 97.9688 314.396 95.8691 313.191 93.4277C311.987 90.9863 311.32 88.252 311.189 85.2246H317.098C317.391 87.7637 318.058 90.0098 319.1 91.9629C320.174 93.8835 321.557 95.5111 323.25 96.8457C324.91 98.1803 326.814 99.1895 328.963 99.873C331.144 100.524 333.488 100.85 335.994 100.85C338.077 100.85 340.128 100.589 342.146 100.068C344.165 99.5475 345.955 98.7337 347.518 97.627C349.113 96.5527 350.398 95.1855 351.375 93.5254C352.352 91.8327 352.84 89.8307 352.84 87.5195ZM411.531 70.918H380.184V99.873H416.316V105H374.373V33.9062H416.121V39.082H380.184V65.791H411.531V70.918ZM440.291 33.9062L454.598 74.043L469.881 33.9062H477.498V105H471.834V73.5059L472.225 42.207L456.453 83.6133H452.645L438.094 42.9395L438.484 73.5059V105H432.771V33.9062H440.291Z" fill="#49B88C"/>
<rect x="1.5" y="9.5" width="112" height="112" rx="56" stroke="#49B88C"/>
<path d="M88.0405 30.3783L95.6757 24.2702" stroke="#49B88C"/>
<rect x="68.6895" y="27.8243" width="23.4324" height="23.4324" rx="11.7162" stroke="#49B88C"/>
<rect x="16.7703" y="52.2568" width="23.4324" height="23.4324" rx="11.7162" stroke="#49B88C"/>
<rect x="44.2568" y="79.7432" width="23.4324" height="23.4324" rx="11.7162" stroke="#49B88C"/>
<path d="M37.6484 56.3379C48.3321 47.8993 55.3837 45.3141 69.716 44.1217" stroke="#49B88C"/>
<path d="M78.8784 51.7568C78.6521 66.5514 75.202 73.1896 63.6081 82.2973M33.0676 74.6622C41.4377 77.5331 43.6043 80.6903 45.2838 86.8784M17.7973 68.5541C11.8308 64.7687 8.19117 64.2291 1 67.027" stroke="#49B88C"/>
<path d="M51.3921 102.149C53.2163 108.673 54.6216 114.251 52.9191 122" stroke="#49B88C"/>
</svg>
