<svg width="152" height="40" viewBox="0 0 152 40" fill="none" xmlns="http://www.w3.org/2000/svg">
<path d="M48.3691 23.2109V32H46.626V10.6719H53.335C54.2627 10.6914 55.1367 10.8477 55.957 11.1406C56.7773 11.4336 57.4902 11.8486 58.0957 12.3857C58.7012 12.9229 59.1797 13.5771 59.5312 14.3486C59.8828 15.1201 60.0586 15.999 60.0586 16.9854C60.0586 17.9619 59.8828 18.8359 59.5312 19.6074C59.1797 20.3691 58.6963 21.0137 58.0811 21.541C57.4756 22.0781 56.7627 22.4883 55.9424 22.7715C55.1318 23.0547 54.2627 23.2012 53.335 23.2109H48.3691ZM48.3691 21.7168H53.335C54.0283 21.707 54.6777 21.5947 55.2832 21.3799C55.8887 21.1553 56.416 20.8379 56.8652 20.4277C57.3145 20.0273 57.666 19.5439 57.9199 18.9775C58.1836 18.4014 58.3154 17.7471 58.3154 17.0146C58.3154 16.2822 58.1885 15.623 57.9346 15.0371C57.6807 14.4414 57.334 13.9336 56.8945 13.5137C56.4453 13.0937 55.9131 12.7715 55.2979 12.5469C54.6924 12.3125 54.0381 12.1904 53.335 12.1807H48.3691V21.7168ZM71.4551 23.0791H66.1816V32H64.4531V10.6719H70.4736C71.4111 10.6914 72.2949 10.8428 73.125 11.126C73.9551 11.4092 74.6826 11.8145 75.3076 12.3418C75.9229 12.8789 76.4062 13.5332 76.7578 14.3047C77.1191 15.0664 77.2998 15.9453 77.2998 16.9414C77.2998 17.6641 77.1924 18.3184 76.9775 18.9043C76.7725 19.4902 76.4844 20.0225 76.1133 20.501C75.7422 20.9697 75.2979 21.3848 74.7803 21.7461C74.2627 22.1074 73.6963 22.415 73.0811 22.6689L77.959 31.8096V32H76.1279L71.4551 23.0791ZM66.1816 21.585H70.8398C71.5039 21.5654 72.1191 21.4434 72.6855 21.2188C73.2617 20.9844 73.7646 20.6621 74.1943 20.252C74.6143 19.8418 74.9414 19.3584 75.1758 18.8018C75.4199 18.2354 75.542 17.6104 75.542 16.9268C75.542 16.1846 75.4102 15.5205 75.1465 14.9346C74.8926 14.3486 74.5361 13.8506 74.0771 13.4404C73.6279 13.04 73.0908 12.7324 72.4658 12.5176C71.8506 12.3027 71.1865 12.1904 70.4736 12.1807H66.1816V21.585ZM95.6396 22.7568C95.6299 23.4795 95.5664 24.2217 95.4492 24.9834C95.332 25.7354 95.1514 26.4629 94.9072 27.166C94.6631 27.8789 94.3506 28.5479 93.9697 29.1729C93.5889 29.7881 93.1348 30.3252 92.6074 30.7842C92.0801 31.2529 91.4746 31.624 90.791 31.8975C90.1074 32.1611 89.3457 32.293 88.5059 32.293C87.6562 32.293 86.8896 32.1611 86.2061 31.8975C85.5225 31.624 84.917 31.2529 84.3896 30.7842C83.8623 30.3252 83.4033 29.7832 83.0127 29.1582C82.6318 28.5332 82.3193 27.8691 82.0752 27.166C81.8213 26.4531 81.6309 25.7207 81.5039 24.9688C81.377 24.2168 81.3086 23.4795 81.2988 22.7568V19.9297C81.3086 19.207 81.3721 18.4697 81.4893 17.7178C81.6162 16.9561 81.8066 16.2236 82.0605 15.5205C82.3047 14.8076 82.6172 14.1436 82.998 13.5283C83.3789 12.9033 83.833 12.3516 84.3604 11.873C84.8877 11.4141 85.4932 11.0527 86.1768 10.7891C86.8604 10.5156 87.627 10.3789 88.4766 10.3789C89.3164 10.3789 90.0781 10.5156 90.7617 10.7891C91.4453 11.0527 92.0557 11.4141 92.5928 11.873C93.1201 12.3418 93.5742 12.8887 93.9551 13.5137C94.3359 14.1387 94.6533 14.8027 94.9072 15.5059C95.1514 16.2188 95.332 16.9561 95.4492 17.7178C95.5664 18.4697 95.6299 19.207 95.6396 19.9297V22.7568ZM93.9258 19.9004C93.916 19.334 93.8721 18.748 93.7939 18.1426C93.7158 17.5371 93.5889 16.9365 93.4131 16.3408C93.2373 15.7646 93.0078 15.2129 92.7246 14.6855C92.4512 14.1484 92.1143 13.6797 91.7139 13.2793C91.3135 12.8789 90.8447 12.5615 90.3076 12.3271C89.7705 12.0928 89.1602 11.9756 88.4766 11.9756C87.7832 11.9756 87.168 12.0977 86.6309 12.3418C86.1035 12.5762 85.6396 12.8887 85.2393 13.2793C84.8389 13.6895 84.4971 14.1582 84.2139 14.6855C83.9404 15.2129 83.7207 15.7695 83.5547 16.3555C83.3789 16.9512 83.2471 17.5518 83.1592 18.1572C83.0811 18.7627 83.0371 19.3438 83.0273 19.9004V22.7568C83.0371 23.3135 83.0811 23.8994 83.1592 24.5146C83.2471 25.1201 83.3789 25.7158 83.5547 26.3018C83.7305 26.8975 83.9551 27.4639 84.2285 28.001C84.5117 28.5283 84.8535 28.9922 85.2539 29.3926C85.6543 29.793 86.123 30.1152 86.6602 30.3594C87.1973 30.5938 87.8125 30.7109 88.5059 30.7109C89.1895 30.7109 89.7998 30.5938 90.3369 30.3594C90.874 30.1152 91.3428 29.793 91.7432 29.3926C92.1436 28.9922 92.4805 28.5283 92.7539 28.001C93.0273 27.4639 93.252 26.9023 93.4277 26.3164C93.6035 25.7305 93.7256 25.1348 93.7939 24.5293C93.8721 23.9141 93.916 23.3232 93.9258 22.7568V19.9004ZM112.002 26.7559C112.012 26.0039 111.846 25.3691 111.504 24.8516C111.172 24.3242 110.747 23.8799 110.229 23.5186C109.702 23.167 109.121 22.8691 108.486 22.625C107.852 22.3809 107.236 22.166 106.641 21.9805C105.928 21.7559 105.195 21.4873 104.443 21.1748C103.691 20.8623 103.013 20.4863 102.407 20.0469C101.743 19.5684 101.201 18.9971 100.781 18.333C100.361 17.6689 100.146 16.8535 100.137 15.8867C100.137 14.998 100.332 14.2119 100.723 13.5283C101.123 12.835 101.641 12.2539 102.275 11.7852C102.91 11.3262 103.628 10.9795 104.429 10.7451C105.229 10.501 106.035 10.3789 106.846 10.3789C107.754 10.3789 108.613 10.5303 109.424 10.833C110.244 11.126 110.962 11.541 111.577 12.0781C112.202 12.6152 112.7 13.2695 113.071 14.041C113.442 14.8027 113.643 15.6523 113.672 16.5898H111.899C111.821 15.8965 111.65 15.2666 111.387 14.7002C111.123 14.124 110.771 13.6309 110.332 13.2207C109.902 12.8105 109.39 12.4932 108.794 12.2686C108.208 12.0439 107.559 11.9316 106.846 11.9316C106.25 11.9316 105.659 12.0146 105.073 12.1807C104.487 12.3369 103.965 12.5762 103.506 12.8984C103.037 13.2305 102.656 13.6406 102.363 14.1289C102.08 14.6172 101.938 15.1934 101.938 15.8574C101.938 16.5703 102.104 17.1758 102.437 17.6738C102.769 18.1621 103.193 18.5771 103.711 18.9189C104.219 19.2607 104.785 19.5488 105.41 19.7832C106.035 20.0078 106.631 20.208 107.197 20.3838C107.969 20.6182 108.745 20.9062 109.526 21.248C110.317 21.5801 111.04 21.9951 111.694 22.4932C112.319 22.9814 112.827 23.5771 113.218 24.2803C113.618 24.9736 113.818 25.7891 113.818 26.7266C113.818 27.6641 113.613 28.4795 113.203 29.1729C112.803 29.8662 112.28 30.4424 111.636 30.9014C110.991 31.3701 110.259 31.7217 109.438 31.9561C108.618 32.1807 107.788 32.293 106.948 32.293C105.952 32.293 104.98 32.1367 104.033 31.8242C103.096 31.502 102.28 31.0332 101.587 30.418C100.962 29.8906 100.469 29.2607 100.107 28.5283C99.7461 27.7959 99.5459 26.9756 99.5068 26.0674H101.279C101.367 26.8291 101.567 27.5029 101.88 28.0889C102.202 28.665 102.617 29.1533 103.125 29.5537C103.623 29.9541 104.194 30.2568 104.839 30.4619C105.493 30.6572 106.196 30.7549 106.948 30.7549C107.573 30.7549 108.188 30.6768 108.794 30.5205C109.399 30.3643 109.937 30.1201 110.405 29.7881C110.884 29.4658 111.27 29.0557 111.562 28.5576C111.855 28.0498 112.002 27.4492 112.002 26.7559ZM129.609 21.7754H120.205V30.4619H131.045V32H118.462V10.6719H130.986V12.2246H120.205V20.2373H129.609V21.7754ZM138.237 10.6719L142.529 22.7129L147.114 10.6719H149.399V32H147.7V22.5518L147.817 13.1621L143.086 25.584H141.943L137.578 13.3818L137.695 22.5518V32H135.981V10.6719H138.237Z" fill="white"/>
<rect x="1.5" y="2.5" width="36" height="36" rx="18" stroke="white"/>
<rect x="23.5" y="8.5" width="7" height="7" rx="3.5" stroke="white"/>
<rect x="6.5" y="16.5" width="7" height="7" rx="3.5" stroke="white"/>
<rect x="15.5" y="25.5" width="7" height="7" rx="3.5" stroke="white"/>
<path d="M29.5 9L32 7" stroke="white"/>
<path d="M13 17.5C16.4982 14.7369 18.8071 13.8904 23.5 13.5" stroke="white"/>
<path d="M26.5 16C26.4259 20.8442 25.2962 23.0178 21.5 26M11.5 23.5C14.2407 24.44 14.9501 25.4738 15.5 27.5M6.5 21.5C4.54636 20.2605 3.35463 20.0839 1 21" stroke="white"/>
<path d="M17.5 32.5C18.0973 34.6362 18.5574 36.4628 18 39" stroke="white"/>
</svg>
